curl
version=1
nRows=255
nColumns=3
inDegrees=yes
endheader
time	r_shoulder_elev	r_elbow_flex
4.7100	36.515315	122.424934
4.7200	36.453102	122.088457
4.7300	36.382888	121.709231
4.7400	36.304945	121.286958
4.7500	36.219571	120.821446
4.7600	36.127084	120.312631
4.7700	36.027827	119.760595
4.7800	35.922156	119.165578
4.7900	35.810446	118.527994
4.8000	35.693081	117.848437
4.8100	35.570455	117.127694
4.8200	35.442966	116.366743
4.8300	35.311017	115.566756
4.8400	35.175011	114.729097
4.8500	35.035345	113.855309
4.8600	34.892413	112.947110
4.8700	34.746601	112.006372
4.8800	34.598284	111.035110
4.8900	34.447825	110.035454
4.9000	34.295576	109.009631
4.9100	34.141871	107.959938
4.9200	33.987032	106.888716
4.9300	33.831366	105.798326
4.9400	33.675164	104.691117
4.9500	33.518703	103.569407
4.9600	33.362248	102.435456
4.9700	33.206051	101.291443
4.9800	33.050354	100.139445
4.9900	32.895391	98.981422
5.0000	32.741389	97.819202
5.0100	32.588572	96.654462
5.0200	32.437159	95.488728
5.0300	32.287369	94.323360
5.0400	32.139421	93.159553
5.0500	31.993536	91.998332
5.0600	31.849936	90.840555
5.0700	31.708846	89.686917
5.0800	31.570493	88.537953
5.0900	31.435103	87.394044
5.1000	31.302903	86.255430
5.1100	31.174116	85.122217
5.1200	31.048962	83.994391
5.1300	30.927653	82.871825
5.1400	30.810389	81.754297
5.1500	30.697359	80.641501
5.1600	30.588736	79.533057
5.1700	30.484671	78.428527
5.1800	30.385298	77.327427
5.1900	30.290724	76.229237
5.2000	30.201033	75.133417
5.2100	30.116282	74.039415
5.2200	30.036499	72.946684
5.2300	29.961685	71.854685
5.2400	29.891815	70.762909
5.2500	29.826837	69.670878
5.2600	29.766671	68.578161
5.2700	29.711217	67.484380
5.2800	29.660350	66.389226
5.2900	29.613927	65.292456
5.3000	29.571787	64.193911
5.3100	29.533754	63.093513
5.3200	29.499638	61.991274
5.3300	29.469240	60.887298
5.3400	29.442351	59.781779
5.3500	29.418756	58.675005
5.3600	29.398236	57.567351
5.3700	29.380569	56.459277
5.3800	29.365529	55.351323
5.3900	29.352893	54.244102
5.4000	29.342435	53.138288
5.4100	29.333931	52.034612
5.4200	29.327155	50.933850
5.4300	29.321884	49.836811
5.4400	29.317895	48.744327
5.4500	29.314961	47.657247
5.4600	29.312858	46.576418
5.4700	29.311359	45.502682
5.4800	29.310232	44.436866
5.4900	29.309246	43.379769
5.5000	29.308164	42.332160
5.5100	29.306746	41.294770
5.5200	29.304750	40.268286
5.5300	29.301928	39.253351
5.5400	29.298032	38.250557
5.5500	29.292814	37.260445
5.5600	29.286023	36.283507
5.5700	29.277415	35.320182
5.5800	29.266746	34.370863
5.5900	29.253784	33.435892
5.6000	29.238302	32.515570
5.6100	29.220091	31.610159
5.6200	29.198953	30.719884
5.6300	29.174713	29.844947
5.6400	29.147218	28.985527
5.6500	29.116337	28.141796
5.6600	29.081972	27.313920
5.6700	29.044051	26.502080
5.6800	29.002538	25.706470
5.6900	28.957433	24.927317
5.7000	28.908769	24.164885
5.7100	28.856619	23.419488
5.7200	28.801095	22.691496
5.7300	28.742345	21.981341
5.7400	28.680556	21.289530
5.7500	28.615952	20.616644
5.7600	28.548793	19.963343
5.7700	28.479372	19.330374
5.7800	28.408012	18.718566
5.7900	28.335066	18.128836
5.8000	28.260912	17.562187
5.8100	28.185952	17.019706
5.8200	28.110604	16.502562
5.8300	28.035303	16.012007
5.8400	27.960497	15.549368
5.8500	27.886639	15.116042
5.8600	27.814188	14.713496
5.8700	27.743603	14.343255
5.8800	27.675340	14.006899
5.8900	27.609850	13.706053
5.9000	27.547571	13.442380
5.9100	27.488930	13.217572
5.9200	27.434340	13.033338
5.9300	27.384194	12.891401
5.9400	27.338862	12.793480
5.9500	27.298694	12.741287
5.9600	27.264012	12.736512
5.9700	27.235113	12.780816
5.9800	27.212260	12.875820
5.9900	27.195689	13.023094
6.0000	27.185599	13.224146
6.0100	27.182156	13.480414
6.0200	27.185489	13.793250
6.0300	27.195689	14.163915
6.0400	27.212808	14.593563
6.0500	27.236860	15.083231
6.0600	27.267817	15.633826
6.0700	27.305611	16.246114
6.0800	27.350136	16.920709
6.0900	27.401245	17.658058
6.1000	27.458751	18.458434
6.1100	27.522432	19.321923
6.1200	27.592029	20.248415
6.1300	27.667251	21.237600
6.1400	27.747777	22.288955
6.1500	27.833256	23.401748
6.1600	27.923315	24.575028
6.1700	28.017561	25.807630
6.1800	28.115584	27.098175
6.1900	28.216962	28.445073
6.2000	28.321268	29.846533
6.2100	28.428070	31.300563
6.2200	28.536941	32.804988
6.2300	28.647461	34.357455
6.2400	28.759223	35.955449
6.2500	28.871838	37.596303
6.2600	28.984939	39.277212
6.2700	29.098187	40.995250
6.2800	29.211274	42.747380
6.2900	29.323927	44.530472
6.3000	29.435911	46.341316
6.3100	29.547034	48.176637
6.3200	29.657144	50.033107
6.3300	29.766136	51.907363
6.3400	29.873949	53.796018
6.3500	29.980566	55.695678
6.3600	30.086014	57.602956
6.3700	30.190360	59.514487
6.3800	30.293708	61.426951
6.3900	30.396197	63.337082
6.4000	30.497993	65.241695
6.4100	30.599284	67.137702
6.4200	30.700275	69.022136
6.4300	30.801180	70.892163
6.4400	30.902213	72.745113
6.4500	31.003582	74.578489
6.4600	31.105484	76.389990
6.4700	31.208092	78.177525
6.4800	31.311555	79.939229
6.4900	31.415986	81.673471
6.5000	31.521460	83.378864
6.5100	31.628010	85.054269
6.5200	31.735622	86.698798
6.5300	31.844235	88.311809
6.5400	31.953739	89.892901
6.5500	32.063975	91.441905
6.5600	32.174739	92.958870
6.5700	32.285783	94.444043
6.5800	32.396820	95.897851
6.5900	32.507527	97.320878
6.6000	32.617555	98.713840
6.6100	32.726531	100.077554
6.6200	32.834066	101.412914
6.6300	32.939766	102.720861
6.6400	33.043233	104.002352
6.6500	33.144079	105.258332
6.6600	33.241931	106.489706
6.6700	33.336439	107.697309
6.6800	33.427281	108.881881
6.6900	33.514175	110.044045
6.7000	33.596878	111.184283
6.7100	33.675197	112.302920
6.7200	33.748989	113.400106
6.7300	33.818165	114.475803
6.7400	33.882693	115.529778
6.7500	33.942595	116.561596
6.7600	33.997950	117.570616
6.7700	34.048889	118.555994
6.7800	34.095592	119.516684
6.7900	34.138283	120.451451
6.8000	34.177227	121.358875
6.8100	34.212719	122.237368
6.8200	34.245081	123.085188
6.8300	34.274651	123.900458
6.8400	34.301779	124.681181
6.8500	34.326816	125.425267
6.8600	34.350106	126.130554
6.8700	34.371981	126.794830
6.8800	34.392752	127.415860
6.8900	34.412703	127.991414
6.9000	34.432085	128.000000
6.9100	34.451111	128.000000
6.9200	34.469951	128.000000
6.9300	34.488732	128.000000
6.9400	34.507529	128.000000
6.9500	34.526371	128.000000
6.9600	34.545235	128.000000
6.9700	34.564049	128.000000
6.9800	34.582694	128.000000
6.9900	34.601006	128.000000
7.0000	34.618776	128.000000
7.0100	34.635758	128.000000
7.0200	34.651672	128.000000
7.0300	34.666207	128.000000
7.0400	34.679028	128.000000
7.0500	34.689782	128.000000
7.0600	34.698103	128.000000
7.0700	34.703615	128.000000
7.0800	34.705942	128.000000
7.0900	34.704710	127.568242
7.1000	34.699556	126.919795
7.1100	34.690126	126.218541
7.1200	34.676088	125.466662
7.1300	34.657131	124.666495
7.1400	34.632971	123.820513
7.1500	34.603354	122.931299
7.1600	34.568059	122.001530
7.1700	34.526903	121.033955
7.1800	34.479743	120.031373
7.1900	34.426477	118.996609
7.2000	34.367049	117.932498
7.2100	34.301446	116.841863
7.2200	34.229705	115.727492
7.2300	34.151912	114.592125
7.2400	34.068199	113.438434
7.2500	33.978748	112.269009
